<svg width="1406" height="176" viewBox="0 0 1406 176" fill="none" xmlns="http://www.w3.org/2000/svg">
<path fill-rule="evenodd" clip-rule="evenodd" d="M129.497 11.6246C104.104 26.8032 87 55.3215 87 88C87 120.679 104.104 149.197 129.497 164.375C116.831 171.771 102.151 176 86.5 176C38.7274 176 0 136.601 0 88C0 39.3989 38.7274 0 86.5 0C102.151 0 116.831 4.2288 129.497 11.6246Z" fill="black"/>
<path d="M268 88C268 133.385 231.862 170 187.5 170C143.138 170 107 133.385 107 88C107 42.615 143.138 6 187.5 6C231.862 6 268 42.615 268 88Z" fill="white" stroke="black" stroke-width="12"/>
<mask id="path-3-inside-1_22_24" fill="white">
<path d="M152.858 162.752C166.124 171.136 181.374 175.709 196.99 175.987C212.605 176.264 228.002 172.235 241.549 164.328C255.095 156.421 266.284 144.93 273.929 131.075C281.573 117.221 285.388 101.519 284.969 85.636C284.549 69.7534 279.911 54.2825 271.546 40.8654C263.181 27.4483 251.401 16.5855 237.457 9.42988C223.513 2.27423 207.925 -0.907302 192.347 0.222938C176.769 1.35318 161.782 6.75302 148.977 15.8494L198.5 88L152.858 162.752Z"/>
</mask>
<path d="M152.858 162.752C166.124 171.136 181.374 175.709 196.99 175.987C212.605 176.264 228.002 172.235 241.549 164.328C255.095 156.421 266.284 144.93 273.929 131.075C281.573 117.221 285.388 101.519 284.969 85.636C284.549 69.7534 279.911 54.2825 271.546 40.8654C263.181 27.4483 251.401 16.5855 237.457 9.42988C223.513 2.27423 207.925 -0.907302 192.347 0.222938C176.769 1.35318 161.782 6.75302 148.977 15.8494L198.5 88L152.858 162.752Z" fill="black" stroke="black" stroke-width="2" mask="url(#path-3-inside-1_22_24)"/>
<path d="M322.55 32.915H359.18L385.58 109.475L411.65 32.915H446.135V140H422.87V60.8H422.375L395.315 140H374.69L346.805 60.8H346.145V140H322.55V32.915ZM497.561 32.915H528.911L567.521 140H541.451L531.881 111.785H492.776L483.371 140H457.961L497.561 32.915ZM526.271 94.625L512.741 54.365H512.081L498.551 94.625H526.271ZM579.396 32.915H605.466L657.276 106.01V32.915H680.211V140H654.141L602.331 65.75V140H579.396V32.915ZM703.307 32.915H746.207C756.657 32.915 764.907 33.63 770.957 35.06C777.117 36.49 781.572 39.02 784.322 42.65C787.182 46.17 788.612 51.12 788.612 57.5V77.795C788.612 84.835 787.072 90.335 783.992 94.295C781.022 98.255 776.237 101.06 769.637 102.71C763.147 104.36 754.347 105.185 743.237 105.185H729.047V140H703.307V32.915ZM745.382 87.53C752.092 87.53 756.822 86.76 759.572 85.22C762.322 83.57 763.697 80.82 763.697 76.97V59.81C763.697 56.29 762.377 53.98 759.737 52.88C757.207 51.78 752.312 51.23 745.052 51.23H729.047V87.53H745.382ZM806.754 32.915H854.934C869.234 32.915 879.574 34.675 885.954 38.195C892.334 41.605 895.524 47.38 895.524 55.52V74.33C895.524 80.6 893.269 85.55 888.759 89.18C884.359 92.7 878.474 94.955 871.104 95.945L902.124 140H872.424L844.374 97.925H832.494V140H806.754V32.915ZM854.604 80.93C860.654 80.93 864.779 80.16 866.979 78.62C869.179 76.97 870.279 73.835 870.279 69.215V61.625C870.279 57.665 869.069 54.97 866.649 53.54C864.339 52 860.324 51.23 854.604 51.23H832.494V80.93H854.604ZM916.969 32.915H998.644V51.23H942.709V75.815H993.199V94.13H942.709V121.685H1000.29V140H916.969V32.915ZM1017.68 32.915H1099.35V51.23H1043.42V75.815H1093.91V94.13H1043.42V121.685H1101V140H1017.68V32.915ZM1143.13 51.23H1110.13V32.915H1201.71V51.23H1168.87V140H1143.13V51.23Z" fill="black"/>
</svg>
